<?xml version="1.0" encoding="UTF-8"?>
<svg xmlns="http://www.w3.org/2000/svg" width="74" height="74" viewBox="0 0 74 74" fill="none">
  <g clip-path="url(#clip0_6013_2519)">
    <path d="M54.6905 27.7645C54.6905 28.3564 54.4648 28.9481 54.013 29.3991L34.0226 49.5164C33.5709 49.968 32.979 50.1937 32.3879 50.1937C31.7968 50.1937 31.2042 49.9645 30.7562 49.5164L20.003 38.7778C19.555 38.3297 19.3237 37.7372 19.3237 37.0145C19.3237 36.4226 19.5495 35.8309 20.0013 35.3798L21.6359 33.7452C22.0987 33.4157 22.5612 33.1989 23.2694 33.1989C23.9776 33.1989 24.4546 33.4157 24.9171 33.8637L32.3922 41.3389L49.1145 24.6166C49.5662 24.1651 50.158 23.9393 50.7492 23.9393C51.3403 23.9393 51.9327 24.1651 52.3838 24.6166L54.0185 26.2513C54.4737 26.7094 54.6905 27.302 54.6905 27.7645Z" fill="#8B5C92"></path>
    <path opacity="0.4" d="M67.4238 12.0987L39.6738 0.536176C38.9692 0.242633 37.7718 0.000976562 37.0087 0.000976562C36.2409 0.000976562 35.0503 0.242633 34.3406 0.536176L6.59207 12.0987C4.00352 13.1668 2.3125 15.6961 2.3125 18.3699C2.3125 55.6734 29.6578 74 36.9855 74C44.3855 74 71.6875 55.4711 71.6875 18.3699C71.6875 15.6961 69.9965 13.1668 67.4238 12.0987ZM54.6906 27.7644C54.6906 28.3563 54.4649 28.948 54.0131 29.3991L34.0227 49.5164C33.571 49.9679 32.9791 50.1936 32.388 50.1936C31.7969 50.1936 31.2043 49.9644 30.7563 49.5164L20.0031 38.7777C19.5551 38.3297 19.3238 37.7371 19.3238 37.0144C19.3238 36.4226 19.5496 35.8309 20.0014 35.3798L21.636 33.7451C22.0988 33.4156 22.5613 33.1988 23.2695 33.1988C23.9777 33.1988 24.4547 33.4156 24.9172 33.8636L32.3923 41.3388L49.1146 24.6165C49.5663 24.165 50.1581 23.9393 50.7493 23.9393C51.3404 23.9393 51.9328 24.165 52.3839 24.6165L54.0186 26.2512C54.4738 26.7093 54.6906 27.3019 54.6906 27.7644Z" fill="#8B5C92"></path>
  </g>
  <defs>
    <clipPath id="clip0_6013_2519">
      <rect width="74" height="74" fill="white"></rect>
    </clipPath>
  </defs>
</svg>
