<?xml version="1.0" encoding="UTF-8"?>
<svg xmlns="http://www.w3.org/2000/svg" width="84" height="74" viewBox="0 0 84 74" fill="none">
  <g clip-path="url(#clip0_6013_2522)">
    <path d="M49.1985 36.8698C46.8903 36.8698 44.5619 37.8217 42.8333 39.5986L41.6127 40.8638L40.382 39.7315C38.6636 37.9552 36.3438 37.0028 34.04 37.0028C29.0089 37.0028 25.7642 41.3561 25.7642 45.6356C25.7642 47.86 26.5854 50.0843 28.2299 51.7912L40.2245 64.1573C40.6137 64.5551 41.118 64.7539 41.6223 64.7539C42.1265 64.7539 42.6307 64.5551 43.0197 64.1573L55.0144 51.7912C56.6563 50.0872 57.4786 47.8657 57.4786 45.6443C57.4801 41.3647 54.2137 36.8698 49.1985 36.8698ZM81.6746 33.5167L74.0029 26.8032L74.0034 6.93016C74.0034 5.65424 72.9692 4.74774 71.821 4.74774L62.7011 4.74667C61.4232 4.74667 60.5187 5.78325 60.5187 6.92909V14.6601L45.0683 1.13917C44.1966 0.375902 43.1099 -0.00537109 42.0216 -0.00537109C40.9332 -0.00537109 39.8464 0.375902 38.9748 1.13917L1.57829 33.5167C0.384032 34.5718 0.000244141 35.9304 0.000244141 36.8698C0.000244141 40.3776 3.17849 41.3647 4.49517 41.4948C5.57583 41.4948 6.66169 41.1186 7.54188 40.3519L41.625 10.7732L75.5754 40.4889C76.4539 41.2566 77.541 41.6317 78.6207 41.6317C80.0427 41.6317 83.2471 40.5139 83.2471 37.1368C83.1199 35.9304 82.8598 34.5573 81.6746 33.5167Z" fill="#8B5C92"></path>
    <path opacity="0.4" d="M41.625 10.7734L9.2529 39.0958L9.25146 64.7501C9.25146 69.8593 13.3923 73.87 18.3714 73.87H64.4913C69.6005 73.87 73.6112 69.7292 73.6112 64.7501L73.6111 39.0958L41.625 10.7734ZM57.4801 45.643C57.4801 47.8645 56.6589 50.0874 55.0158 51.79L43.0212 64.1561C42.6321 64.5538 42.1278 64.7527 41.6237 64.7527C41.1196 64.7527 40.6153 64.5538 40.2259 64.1561L28.2313 51.79C26.5865 50.0845 25.7656 47.8587 25.7656 45.6344C25.7656 41.3664 29.0045 37.0015 34.0415 37.0015C36.3453 37.0015 38.665 37.9534 40.3835 39.7303L41.6043 40.9955L42.8249 39.7303C44.5535 37.954 46.8833 37.0015 49.1901 37.0015C54.2137 36.87 57.4801 41.3505 57.4801 45.643Z" fill="#8B5C92"></path>
  </g>
  <defs>
    <clipPath id="clip0_6013_2522">
      <rect width="83.25" height="74" fill="white"></rect>
    </clipPath>
  </defs>
</svg>
