<?xml version="1.0" encoding="UTF-8"?>
<svg xmlns="http://www.w3.org/2000/svg" width="84" height="74" viewBox="0 0 84 74" fill="none">
  <g clip-path="url(#clip0_6013_2525)">
    <path d="M45.802 2.60156C45.0359 1.01172 43.4172 0 41.6395 0C39.8617 0 38.2574 1.01172 37.477 2.60156L28.1836 21.723L7.42891 24.7871C5.69454 25.0473 4.24922 26.2613 3.71446 27.9234C3.17969 29.5855 3.61328 31.4211 4.85625 32.6496L19.9164 47.5508L16.3609 68.609C16.0719 70.3434 16.7945 72.1066 18.2254 73.1328C19.6563 74.159 21.5496 74.2891 23.1105 73.4652L41.6539 63.5648L60.1973 73.4652C61.7582 74.2891 63.6516 74.1734 65.0824 73.1328C66.5133 72.0922 67.2359 70.3434 66.9469 68.609L63.377 47.5508L78.4371 32.6496C79.6801 31.4211 80.1281 29.5855 79.5789 27.9234C79.0297 26.2613 77.5988 25.0473 75.8645 24.7871L55.0953 21.723L45.802 2.60156Z" fill="#8B5C92"></path>
  </g>
  <defs>
    <clipPath id="clip0_6013_2525">
      <rect width="83.25" height="74" fill="white"></rect>
    </clipPath>
  </defs>
</svg>
